<?xml version="1.0" encoding="UTF-8"?>
<svg width="13px" height="13px" viewBox="0 0 13 13" version="1.1" xmlns="http://www.w3.org/2000/svg" xmlns:xlink="http://www.w3.org/1999/xlink">
    <!-- Generator: Sketch 52.5 (67469) - http://www.bohemiancoding.com/sketch -->
    <title>分组@3x</title>
    <desc>Created with Sketch.</desc>
    <g id="页面1" stroke="none" stroke-width="1" fill="none" fill-rule="evenodd">
        <g id="电影条目" transform="translate(-133.000000, -329.000000)">
            <g id="编组-12" transform="translate(24.000000, 303.000000)">
                <g id="编组-3">
                    <g id="分组" transform="translate(109.000000, 26.000000)">
                        <path d="M6.55,10.6358404 L6.55,1.33095358e-06 C6.55042226,4.44079003e-07 6.55084492,-2.7533531e-14 6.55126797,-2.7533531e-14 C6.82841851,-2.7533531e-14 6.92725856,0.193147867 6.93221751,0.209095856 L8.49992576,4.3642115 L12.606789,4.59824824 C12.606789,4.59824824 12.8883899,4.60967763 12.9776511,4.941573 C13.0615295,5.25353339 12.8822866,5.43259386 12.8822866,5.43259386 L9.73084883,8.15686479 L10.7469686,12.4276477 C10.7469686,12.4276477 10.8351278,12.6975231 10.5900197,12.8934175 C10.3498283,13.0854136 10.1223097,12.9479951 10.1223097,12.9479951 L6.56156734,10.6283158 L6.55,10.6358404 Z" id="合并形状" fill="#FFFFFF" opacity="0.3"></path>
                        <path d="M0.1,10.6358404 L0.1,1.33095358e-06 C0.100422261,4.44079003e-07 0.100844918,-2.7533531e-14 0.101267973,-2.7533531e-14 C0.378418513,-2.7533531e-14 0.477258559,0.193147867 0.482217515,0.209095856 L2.04992576,4.3642115 L6.156789,4.59824824 C6.156789,4.59824824 6.43838988,4.60967763 6.52765109,4.941573 C6.6115295,5.25353339 6.43228655,5.43259386 6.43228655,5.43259386 L3.28084883,8.15686479 L4.29696858,12.4276477 C4.29696858,12.4276477 4.3851278,12.6975231 4.14001974,12.8934175 C3.89982826,13.0854136 3.67230966,12.9479951 3.67230966,12.9479951 L0.111567343,10.6283158 L0.1,10.6358404 Z" id="合并形状" fill="#FFAC2C" transform="translate(3.325000, 6.497812) scale(-1, 1) translate(-3.325000, -6.497812) "></path>
                    </g>
                </g>
            </g>
        </g>
    </g>
</svg>